<?xml version="1.0" encoding="UTF-8"?>
<svg xmlns="http://www.w3.org/2000/svg" xmlns:xlink="http://www.w3.org/1999/xlink" width="12pt" height="12pt" viewBox="0 0 12 12" version="1.1">
<g id="surface1">
<path style=" stroke:none;fill-rule:nonzero;fill:rgb(0%,0%,0%);fill-opacity:1;" d="M 5.410156 0.636719 C 4.496094 0.636719 3.546875 0.785156 2.601562 1.070312 C 2.328125 1.152344 1.5 1.402344 1.195312 2.222656 C 0.894531 3.035156 1.324219 3.703125 1.640625 4.195312 C 1.820312 4.476562 2.023438 4.792969 2.023438 5.015625 C 2.023438 5.386719 1.460938 6.160156 1.082031 6.671875 C 0.40625 7.605469 -0.363281 8.660156 0.183594 9.738281 C 0.695312 10.742188 1.933594 10.871094 2.953125 10.871094 C 7.433594 10.871094 11.511719 8.164062 11.511719 5.191406 C 11.511719 3.003906 9.175781 0.636719 5.410156 0.636719 Z M 4.042969 8.355469 C 4.035156 8.894531 3.597656 9.324219 3.058594 9.324219 C 2.515625 9.324219 2.078125 8.886719 2.078125 8.34375 C 2.078125 7.800781 2.515625 7.359375 3.058594 7.359375 C 3.226562 7.359375 3.382812 7.40625 3.519531 7.476562 C 3.828125 7.644531 4.042969 7.964844 4.042969 8.339844 C 4.042969 8.347656 4.042969 8.351562 4.042969 8.355469 Z M 4.167969 3.695312 C 3.957031 3.511719 3.824219 3.25 3.824219 2.953125 C 3.824219 2.410156 4.269531 1.96875 4.808594 1.96875 C 5.351562 1.96875 5.792969 2.410156 5.792969 2.953125 C 5.792969 3.003906 5.785156 3.054688 5.777344 3.097656 C 5.707031 3.574219 5.300781 3.9375 4.808594 3.9375 C 4.5625 3.9375 4.339844 3.84375 4.167969 3.695312 Z M 6.03125 8.59375 C 5.683594 8.59375 5.378906 8.410156 5.207031 8.136719 C 5.105469 7.984375 5.050781 7.804688 5.050781 7.609375 C 5.050781 7.066406 5.488281 6.628906 6.03125 6.628906 C 6.515625 6.628906 6.917969 6.976562 7 7.433594 C 7.007812 7.492188 7.015625 7.550781 7.015625 7.609375 C 7.015625 8.152344 6.578125 8.59375 6.03125 8.59375 Z M 6.734375 3.246094 C 6.730469 3.203125 6.71875 3.160156 6.71875 3.117188 C 6.71875 2.664062 7.03125 2.285156 7.449219 2.171875 C 7.53125 2.148438 7.613281 2.136719 7.703125 2.136719 C 8.089844 2.136719 8.417969 2.359375 8.582031 2.683594 C 8.644531 2.816406 8.683594 2.960938 8.683594 3.117188 C 8.683594 3.457031 8.515625 3.757812 8.253906 3.933594 C 8.097656 4.039062 7.90625 4.101562 7.707031 4.101562 C 7.203125 4.101562 6.796875 3.726562 6.734375 3.246094 Z M 8.265625 7.042969 C 8.097656 7.042969 7.945312 6.996094 7.804688 6.925781 C 7.5 6.757812 7.28125 6.433594 7.28125 6.058594 C 7.28125 5.515625 7.722656 5.070312 8.265625 5.070312 C 8.574219 5.070312 8.84375 5.21875 9.023438 5.441406 C 9.164062 5.609375 9.246094 5.824219 9.246094 6.058594 C 9.246094 6.597656 8.808594 7.042969 8.265625 7.042969 Z M 8.265625 7.042969 "/>
</g>
</svg>
